<?xml version="1.0" ?>
<!-- Uploaded to: SVG Repo, www.svgrepo.com, Generator: SVG Repo Mixer Tools -->
<svg width="800px" height="800px" viewBox="0 0 50 50" id="Message_And_Communication_Icons" version="1.1" xml:space="preserve" xmlns="http://www.w3.org/2000/svg" xmlns:xlink="http://www.w3.org/1999/xlink">
<g>
<g>
<g>
<path d="M36.7,12.3c2.3,3,3.7,6.7,3.7,10.7c0,9.6-7.8,17.4-17.4,17.4c-4,0-7.7-1.4-10.7-3.7     c3.2,4.1,8.1,6.7,13.7,6.7c9.6,0,17.4-7.8,17.4-17.4C43.4,20.4,40.8,15.5,36.7,12.3z" style="fill:#4DE0F9;"/>
</g>
</g>
<g>
<g>
<path d="M25,43c-9.9,0-18-8.1-18-18S15.1,7,25,7s18,8.1,18,18S34.9,43,25,43z M25,8.2     C15.7,8.2,8.2,15.7,8.2,25S15.7,41.8,25,41.8S41.8,34.3,41.8,25S34.3,8.2,25,8.2z" style="fill:#0D5FC3;"/>
</g>
</g>
<g>
<g>
<g>
<path d="M15.6,32.8h-1.2c-0.3,0-0.6-0.3-0.6-0.6V19.4c0-0.3,0.3-0.6,0.6-0.6h13.8V20H15v11.6h0.6V32.8z" style="fill:#0D5FC3;"/>
</g>
</g>
<g>
<g>
<path d="M34.6,32.8H20.2v-1.2H34V20.5l-3.1,2l-0.6-1l4-2.5c0.2-0.1,0.4-0.1,0.6,0      c0.2,0.1,0.3,0.3,0.3,0.5v12.8C35.2,32.5,34.9,32.8,34.6,32.8z" style="fill:#0D5FC3;"/>
</g>
</g>
<g>
<g>
<rect height="1.2" style="fill:#0D5FC3;" transform="matrix(0.8439 0.5366 -0.5366 0.8439 14.7176 -6.5462)" width="9.9" x="13.7" y="21.4"/>
</g>
</g>
</g>
<g>
<g>
<rect height="34.9" style="fill:#0D5FC3;" transform="matrix(0.7071 0.7071 -0.7071 0.7071 25 -10.3553)" width="1.2" x="24.4" y="7.5"/>
</g>
</g>
<g>
<g>
<path d="M23.3,10.8l-0.1-1.2c0.6-0.1,1.2-0.1,1.8-0.1v1.2C24.4,10.7,23.9,10.8,23.3,10.8z" style="fill:#4DE0F9;"/>
</g>
</g>
<g>
<g>
<path d="M17,13.1l-0.7-1c1.5-1,3.1-1.7,4.8-2.2l0.3,1.2C19.9,11.6,18.4,12.2,17,13.1z" style="fill:#4DE0F9;"/>
</g>
</g>
</g>
</svg>